<svg xmlns="http://www.w3.org/2000/svg" viewBox="0 0 97 97" width="97" height="97"><defs><linearGradient id="g" x1="15%" y1="12%" x2="85%" y2="88%"><stop offset="0%" stop-color="#488148"/><stop offset="38%" stop-color="#78A754"/><stop offset="100%" stop-color="#B6D16A"/></linearGradient></defs><path d="M 5.32,49.61 A 44.26,44.26 0 1 0 93.85,49.61 A 44.26,44.26 0 1 0 5.32,49.61 Z" fill="#fff"/><path d="M 84.09,27.83 C 83.59,27.81 82.97,28.27 82.49,28.70 C 82.00,29.14 81.39,30.06 80.91,30.66 C 80.42,31.25 79.81,32.06 79.31,32.60 C 78.81,33.14 78.18,33.73 77.65,34.18 C 77.13,34.63 76.45,35.14 75.88,35.53 C 75.32,35.93 74.58,36.40 73.97,36.76 C 73.37,37.12 72.58,37.55 71.95,37.87 C 71.31,38.20 70.49,38.58 69.84,38.88 C 69.18,39.17 68.34,39.52 67.67,39.78 C 67.00,40.04 66.15,40.36 65.47,40.59 C 64.80,40.82 63.94,41.10 63.26,41.30 C 62.58,41.50 61.71,41.74 61.02,41.91 C 60.34,42.09 59.46,42.29 58.77,42.43 C 58.07,42.57 57.19,42.73 56.49,42.84 C 55.78,42.95 54.89,43.07 54.18,43.17 C 53.47,43.26 52.58,43.37 51.88,43.47 C 51.17,43.58 50.29,43.73 49.60,43.85 C 48.90,43.97 48.03,44.15 47.33,44.27 C 46.63,44.40 45.75,44.54 45.05,44.66 C 44.34,44.77 43.45,44.90 42.74,45.01 C 42.04,45.12 41.14,45.25 40.44,45.36 C 39.73,45.47 38.84,45.61 38.13,45.74 C 37.43,45.86 36.54,46.03 35.84,46.18 C 35.14,46.32 34.26,46.52 33.57,46.70 C 32.89,46.88 32.02,47.13 31.34,47.35 C 30.67,47.57 29.82,47.87 29.16,48.14 C 28.50,48.41 27.67,48.79 27.03,49.11 C 26.39,49.44 25.59,49.89 24.98,50.28 C 24.37,50.66 23.61,51.19 23.04,51.63 C 22.47,52.07 21.77,52.65 21.24,53.14 C 20.72,53.64 20.09,54.29 19.63,54.83 C 19.17,55.36 18.62,56.07 18.24,56.66 C 17.85,57.24 17.40,58.00 17.09,58.63 C 16.78,59.25 16.45,60.06 16.23,60.73 C 16.02,61.39 15.80,62.25 15.69,62.94 C 15.58,63.64 15.51,64.54 15.51,65.26 C 15.50,65.98 15.56,66.91 15.65,67.63 C 15.74,68.35 15.92,69.27 16.09,69.98 C 16.27,70.69 16.55,71.58 16.80,72.25 C 17.05,72.92 17.41,73.75 17.73,74.37 C 18.05,74.99 18.49,75.72 18.87,76.30 C 19.25,76.87 19.76,77.56 20.21,78.12 C 20.66,78.67 21.27,79.35 21.79,79.91 C 22.31,80.47 23.17,81.54 23.60,81.76 C 24.03,81.98 24.54,81.76 24.60,81.33 C 24.65,80.91 24.16,79.69 23.96,78.99 C 23.76,78.29 23.47,77.44 23.32,76.75 C 23.16,76.06 23.02,75.17 22.94,74.46 C 22.86,73.75 22.81,72.84 22.81,72.12 C 22.81,71.40 22.86,70.48 22.94,69.77 C 23.03,69.06 23.18,68.16 23.36,67.47 C 23.54,66.79 23.83,65.93 24.12,65.29 C 24.40,64.64 24.83,63.85 25.22,63.26 C 25.61,62.67 26.17,61.96 26.65,61.44 C 27.13,60.91 27.80,60.28 28.35,59.82 C 28.90,59.37 29.65,58.83 30.25,58.45 C 30.86,58.07 31.67,57.63 32.32,57.33 C 32.96,57.02 33.80,56.70 34.48,56.46 C 35.15,56.23 36.02,55.98 36.72,55.80 C 37.41,55.62 38.29,55.43 38.99,55.28 C 39.70,55.13 40.58,54.97 41.29,54.83 C 41.99,54.70 42.87,54.54 43.57,54.41 C 44.27,54.29 45.15,54.13 45.85,54.00 C 46.55,53.88 47.43,53.72 48.13,53.59 C 48.83,53.46 49.71,53.29 50.41,53.15 C 51.11,53.01 51.99,52.83 52.69,52.68 C 53.39,52.53 54.27,52.34 54.97,52.19 C 55.66,52.04 56.54,51.85 57.23,51.72 C 57.92,51.58 58.77,51.43 59.45,51.30 C 60.14,51.18 61.04,51.03 61.71,50.91 C 62.38,50.79 63.71,50.36 63.81,50.51 C 63.92,50.66 62.94,51.51 62.38,51.87 C 61.82,52.23 60.81,52.53 60.15,52.86 C 59.49,53.19 58.71,53.71 58.07,54.03 C 57.42,54.36 56.61,54.71 55.95,54.97 C 55.30,55.22 54.46,55.49 53.80,55.71 C 53.13,55.92 52.29,56.15 51.61,56.35 C 50.94,56.55 50.08,56.78 49.40,56.99 C 48.72,57.21 47.85,57.49 47.17,57.73 C 46.49,57.98 45.63,58.31 44.96,58.60 C 44.29,58.89 43.45,59.27 42.80,59.60 C 42.15,59.93 41.34,60.37 40.72,60.75 C 40.10,61.12 39.34,61.62 38.76,62.04 C 38.18,62.47 37.48,63.03 36.95,63.50 C 36.43,63.97 35.79,64.59 35.33,65.11 C 34.87,65.63 34.32,66.32 33.93,66.90 C 33.54,67.47 33.10,68.23 32.79,68.86 C 32.48,69.49 32.15,70.32 31.93,70.99 C 31.71,71.67 31.50,72.55 31.37,73.25 C 31.25,73.96 31.15,74.87 31.12,75.59 C 31.09,76.31 31.11,77.24 31.18,77.96 C 31.25,78.69 31.40,79.61 31.58,80.32 C 31.75,81.03 32.03,81.92 32.30,82.58 C 32.58,83.25 32.98,84.07 33.36,84.67 C 33.73,85.26 34.27,85.97 34.74,86.47 C 35.21,86.97 35.88,87.53 36.44,87.91 C 37.00,88.29 37.78,88.70 38.42,88.98 C 39.06,89.26 39.91,89.54 40.60,89.73 C 41.29,89.93 42.20,90.12 42.91,90.25 C 43.63,90.38 44.56,90.50 45.28,90.58 C 46.00,90.66 46.92,90.74 47.64,90.78 C 48.36,90.83 49.26,90.87 49.97,90.87 C 50.69,90.88 51.58,90.87 52.29,90.83 C 53.00,90.80 53.89,90.73 54.60,90.66 C 55.30,90.58 56.19,90.45 56.89,90.33 C 57.60,90.21 58.48,90.03 59.17,89.86 C 59.87,89.70 60.74,89.46 61.42,89.26 C 62.11,89.05 62.96,88.76 63.63,88.51 C 64.30,88.26 65.14,87.92 65.79,87.64 C 66.44,87.35 67.24,86.96 67.88,86.63 C 68.51,86.31 69.29,85.88 69.90,85.52 C 70.51,85.16 71.27,84.68 71.87,84.29 C 72.46,83.90 73.20,83.38 73.77,82.96 C 74.35,82.54 75.06,81.98 75.62,81.53 C 76.18,81.08 76.87,80.50 77.40,80.02 C 77.94,79.54 78.60,78.92 79.12,78.42 C 79.63,77.92 80.26,77.27 80.75,76.74 C 81.24,76.21 81.83,75.53 82.29,74.97 C 82.74,74.42 83.30,73.71 83.72,73.13 C 84.15,72.56 84.66,71.82 85.05,71.22 C 85.44,70.62 85.90,69.85 86.25,69.23 C 86.60,68.61 87.01,67.81 87.32,67.17 C 87.62,66.53 87.98,65.71 88.24,65.05 C 88.50,64.39 88.81,63.55 89.03,62.87 C 89.25,62.20 89.50,61.33 89.68,60.64 C 89.86,59.95 90.06,59.07 90.20,58.37 C 90.35,57.67 90.50,56.78 90.60,56.07 C 90.71,55.36 90.81,54.45 90.88,53.74 C 90.95,53.02 91.01,52.11 91.05,51.39 C 91.08,50.67 91.10,49.76 91.11,49.04 C 91.11,48.32 91.09,47.41 91.06,46.69 C 91.03,45.97 90.97,45.06 90.91,44.35 C 90.85,43.63 90.75,42.73 90.65,42.03 C 90.55,41.32 90.41,40.44 90.28,39.75 C 90.14,39.05 89.95,38.19 89.77,37.51 C 89.60,36.84 89.36,36.01 89.14,35.34 C 88.91,34.68 88.60,33.86 88.30,33.18 C 88.00,32.51 87.56,31.60 87.17,30.93 C 86.77,30.26 86.17,29.29 85.70,28.81 C 85.23,28.34 84.58,27.84 84.09,27.83 Z M 44.41,7.56 C 43.87,7.62 43.20,7.71 42.67,7.80 C 42.13,7.88 41.47,8.00 40.94,8.10 C 40.41,8.21 39.74,8.36 39.22,8.48 C 38.70,8.61 38.04,8.79 37.52,8.94 C 37.00,9.09 36.35,9.29 35.84,9.46 C 35.33,9.63 34.68,9.86 34.18,10.06 C 33.67,10.25 33.04,10.51 32.54,10.72 C 32.05,10.94 31.42,11.22 30.94,11.46 C 30.45,11.69 29.84,12.00 29.36,12.26 C 28.88,12.51 28.28,12.85 27.82,13.12 C 27.35,13.40 26.77,13.76 26.31,14.05 C 25.85,14.35 25.29,14.73 24.84,15.04 C 24.40,15.36 23.85,15.76 23.42,16.09 C 22.99,16.42 22.45,16.85 22.04,17.20 C 21.62,17.55 21.11,18.00 20.71,18.37 C 20.31,18.73 19.81,19.20 19.43,19.59 C 19.04,19.97 18.57,20.46 18.20,20.86 C 17.84,21.25 17.39,21.77 17.04,22.18 C 16.69,22.59 16.26,23.12 15.93,23.55 C 15.60,23.97 15.20,24.52 14.89,24.96 C 14.58,25.40 14.20,25.96 13.91,26.42 C 13.61,26.87 13.26,27.45 12.99,27.91 C 12.72,28.38 12.39,28.97 12.13,29.45 C 11.88,29.92 11.58,30.53 11.34,31.02 C 11.11,31.50 10.83,32.12 10.62,32.62 C 10.41,33.12 10.16,33.75 9.97,34.25 C 9.78,34.76 9.55,35.40 9.38,35.92 C 9.21,36.43 9.01,37.08 8.86,37.60 C 8.71,38.13 8.54,38.79 8.41,39.32 C 8.29,39.84 8.14,40.51 8.04,41.05 C 7.93,41.58 7.81,42.26 7.73,42.80 C 7.65,43.34 7.56,44.02 7.50,44.56 C 7.44,45.11 7.38,45.80 7.34,46.34 C 7.30,46.89 7.27,47.59 7.25,48.14 C 7.24,48.69 7.24,49.38 7.25,49.94 C 7.26,50.49 7.28,51.19 7.32,51.74 C 7.36,52.28 7.42,52.97 7.49,53.50 C 7.56,54.03 7.68,54.69 7.79,55.20 C 7.90,55.70 8.07,56.32 8.23,56.78 C 8.40,57.24 8.61,58.02 8.85,58.18 C 9.10,58.35 9.54,58.22 9.83,57.86 C 10.11,57.50 10.44,56.41 10.70,55.85 C 10.97,55.30 11.28,54.72 11.55,54.26 C 11.82,53.80 12.17,53.30 12.45,52.87 C 12.74,52.43 13.10,51.87 13.41,51.42 C 13.71,50.98 14.11,50.41 14.44,49.98 C 14.77,49.54 15.20,48.99 15.56,48.58 C 15.92,48.17 16.39,47.67 16.79,47.30 C 17.18,46.93 17.70,46.49 18.13,46.17 C 18.56,45.85 19.12,45.47 19.58,45.19 C 20.03,44.90 20.62,44.57 21.10,44.32 C 21.57,44.06 22.18,43.76 22.67,43.52 C 23.16,43.28 23.78,42.99 24.27,42.77 C 24.76,42.54 25.39,42.27 25.89,42.06 C 26.39,41.85 27.03,41.59 27.53,41.40 C 28.04,41.20 28.68,40.97 29.20,40.78 C 29.71,40.60 30.36,40.39 30.87,40.22 C 31.39,40.06 32.05,39.86 32.57,39.71 C 33.09,39.56 33.75,39.38 34.28,39.25 C 34.81,39.12 35.47,38.97 36.00,38.86 C 36.53,38.74 37.20,38.61 37.73,38.52 C 38.27,38.42 38.94,38.31 39.48,38.23 C 40.01,38.15 40.69,38.06 41.23,38.00 C 41.76,37.93 42.44,37.85 42.98,37.79 C 43.52,37.73 44.20,37.67 44.74,37.61 C 45.28,37.56 45.96,37.50 46.50,37.45 C 47.04,37.39 47.72,37.33 48.25,37.28 C 48.79,37.23 49.47,37.16 50.01,37.11 C 50.55,37.05 51.22,36.98 51.76,36.91 C 52.29,36.85 52.97,36.77 53.50,36.69 C 54.03,36.62 54.71,36.52 55.24,36.44 C 55.77,36.35 56.44,36.24 56.96,36.15 C 57.49,36.05 58.16,35.93 58.68,35.82 C 59.21,35.71 59.87,35.57 60.40,35.46 C 60.92,35.34 61.58,35.18 62.10,35.05 C 62.62,34.92 63.28,34.75 63.80,34.60 C 64.32,34.46 64.97,34.27 65.49,34.11 C 66.00,33.95 66.65,33.74 67.17,33.57 C 67.68,33.40 68.33,33.18 68.84,32.99 C 69.35,32.80 69.99,32.55 70.49,32.34 C 70.99,32.13 71.62,31.85 72.11,31.62 C 72.59,31.38 73.20,31.06 73.67,30.79 C 74.13,30.52 74.71,30.15 75.15,29.84 C 75.58,29.52 76.13,29.10 76.52,28.74 C 76.92,28.38 77.39,27.89 77.71,27.48 C 78.04,27.07 78.40,26.52 78.62,26.05 C 78.84,25.58 79.06,24.95 79.15,24.42 C 79.24,23.90 79.26,23.18 79.21,22.63 C 79.17,22.07 79.01,21.34 78.83,20.80 C 78.66,20.26 78.35,19.59 78.05,19.12 C 77.75,18.65 77.30,18.10 76.90,17.76 C 76.50,17.42 75.86,17.01 75.43,16.90 C 74.99,16.79 74.35,16.75 74.08,17.03 C 73.80,17.31 73.79,18.21 73.63,18.75 C 73.47,19.29 73.28,20.05 73.06,20.56 C 72.83,21.07 72.46,21.65 72.15,22.08 C 71.84,22.51 71.40,23.00 71.02,23.36 C 70.64,23.72 70.13,24.13 69.70,24.43 C 69.27,24.73 68.69,25.07 68.22,25.32 C 67.75,25.57 67.12,25.85 66.62,26.06 C 66.12,26.26 65.46,26.50 64.94,26.67 C 64.42,26.84 63.74,27.04 63.21,27.18 C 62.68,27.33 62.00,27.50 61.47,27.63 C 60.94,27.76 60.27,27.91 59.75,28.03 C 59.23,28.15 58.59,28.30 58.07,28.41 C 57.56,28.52 56.93,28.66 56.41,28.76 C 55.90,28.86 55.25,28.98 54.72,29.06 C 54.18,29.14 53.51,29.24 52.95,29.30 C 52.38,29.36 51.64,29.43 51.05,29.46 C 50.47,29.49 49.68,29.52 49.13,29.49 C 48.58,29.47 47.87,29.40 47.48,29.29 C 47.09,29.18 46.57,28.95 46.56,28.78 C 46.55,28.61 46.97,28.36 47.40,28.18 C 47.83,28.00 48.78,27.79 49.36,27.62 C 49.94,27.45 50.63,27.23 51.16,27.06 C 51.70,26.89 52.33,26.67 52.84,26.49 C 53.34,26.31 53.95,26.08 54.43,25.89 C 54.92,25.71 55.53,25.47 56.01,25.27 C 56.50,25.07 57.13,24.82 57.62,24.60 C 58.11,24.38 58.73,24.09 59.21,23.84 C 59.69,23.58 60.28,23.23 60.73,22.92 C 61.17,22.61 61.72,22.18 62.12,21.80 C 62.51,21.41 62.99,20.88 63.31,20.43 C 63.64,19.99 64.02,19.38 64.25,18.89 C 64.49,18.40 64.74,17.75 64.86,17.24 C 64.99,16.72 65.08,16.05 65.07,15.53 C 65.06,15.01 64.96,14.35 64.81,13.85 C 64.66,13.35 64.36,12.73 64.08,12.26 C 63.81,11.80 63.37,11.23 63.00,10.83 C 62.62,10.43 62.08,9.95 61.64,9.63 C 61.20,9.31 60.60,8.96 60.12,8.72 C 59.64,8.49 59.00,8.26 58.49,8.11 C 57.98,7.95 57.31,7.81 56.78,7.72 C 56.25,7.62 55.56,7.55 55.02,7.50 C 54.47,7.44 53.78,7.41 53.23,7.38 C 52.69,7.35 52.00,7.33 51.45,7.31 C 50.91,7.30 50.22,7.29 49.68,7.29 C 49.14,7.29 48.45,7.30 47.91,7.32 C 47.37,7.34 46.69,7.37 46.16,7.41 C 45.62,7.44 44.94,7.50 44.41,7.56 Z" fill="url(#g)" fill-rule="evenodd"/></svg>